<?xml version="1.0" encoding="utf-8"?>
<!-- Generator: Adobe Illustrator 26.1.0, SVG Export Plug-In . SVG Version: 6.00 Build 0)  -->
<svg version="1.1" id="Layer_1" xmlns="http://www.w3.org/2000/svg" xmlns:xlink="http://www.w3.org/1999/xlink" x="0px" y="0px"
	 viewBox="0 0 156.7 256.9" style="enable-background:new 0 0 156.7 256.9;" xml:space="preserve">
<style type="text/css">
	.st0{fill:#FFFFFF;}
</style>
<path class="st0" d="M0,0c9.3,7.3,18.5,14.6,27.8,21.9C42,33.1,56.2,44.4,70.5,55.6c1.3,1,1.9,2.2,1.9,3.8c0,56.4,0,112.9,0,169.3
	c0,0.2,0,0.4,0,0.6c0,1.5-0.4,2-1.8,2.5c-9.7,3.6-19.4,7.1-29,10.6c-13.6,5-27.3,10-40.9,15c-0.2,0.1-0.4,0.2-0.6,0.2
	C0,171.8,0,85.9,0,0z"/>
<path class="st0" d="M156.7,0c0,0.4,0,0.7,0,0.9c0,85.3,0,170.5,0,255.8c0,0,0,0,0,0.1c0,0.8,0,0.8-0.8,0.6
	c-13.1-4.8-26.2-9.6-39.3-14.4c-10.3-3.8-20.5-7.5-30.8-11.3c-1.2-0.5-1.4-0.8-1.4-2.1c0-57,0-114,0-171c0-1.1,0.4-1.9,1.2-2.6
	c23-18.1,45.9-36.2,68.8-54.3C155.2,1.2,155.9,0.7,156.7,0z"/>
</svg>
